# Blender 4.3.2
# www.blender.org
mtllib BG.mtl
o Plane
v -13.620905 0.000000 14.193563
v 13.620905 0.000000 14.193563
v -13.620905 17.430346 -14.193563
v 13.620905 17.430346 -14.193563
v -13.620905 0.000000 -1.845163
v -13.620905 8.675906 -14.193563
v -13.620905 0.011890 -2.491428
v -13.620905 0.047527 -3.135922
v -13.620905 0.106815 -3.776878
v -13.620905 0.189589 -4.412539
v -13.620905 0.295625 -5.041164
v -13.620905 0.424629 -5.661028
v -13.620905 0.576250 -6.270434
v -13.620905 0.750072 -6.867710
v -13.620905 0.945617 -7.451219
v -13.620905 1.162351 -8.019362
v -13.620905 1.399679 -8.570583
v -13.620905 1.656951 -9.103370
v -13.620905 1.933461 -9.616262
v -13.620905 2.228451 -10.107856
v -13.620905 2.541114 -10.576799
v -13.620905 2.870592 -11.021812
v -13.620905 3.215982 -11.441672
v -13.620905 3.576337 -11.835228
v -13.620905 3.950669 -12.201403
v -13.620905 4.337953 -12.539190
v -13.620905 4.737127 -12.847668
v -13.620905 5.147098 -13.125987
v -13.620905 5.566740 -13.373387
v -13.620905 5.994904 -13.589190
v -13.620905 6.430417 -13.772800
v -13.620905 6.872084 -13.923720
v -13.620905 7.318696 -14.041533
v -13.620905 7.769027 -14.125917
v -13.620905 8.221845 -14.176639
v 13.620905 8.675906 -14.193563
v 13.620905 0.000000 -1.845163
v 13.620905 8.221845 -14.176639
v 13.620905 7.769027 -14.125917
v 13.620905 7.318696 -14.041533
v 13.620905 6.872084 -13.923720
v 13.620905 6.430417 -13.772800
v 13.620905 5.994904 -13.589190
v 13.620905 5.566740 -13.373387
v 13.620905 5.147098 -13.125987
v 13.620905 4.737127 -12.847668
v 13.620905 4.337953 -12.539190
v 13.620905 3.950669 -12.201403
v 13.620905 3.576337 -11.835228
v 13.620905 3.215982 -11.441672
v 13.620905 2.870592 -11.021812
v 13.620905 2.541114 -10.576799
v 13.620905 2.228451 -10.107856
v 13.620905 1.933461 -9.616262
v 13.620905 1.656951 -9.103370
v 13.620905 1.399679 -8.570583
v 13.620905 1.162351 -8.019362
v 13.620905 0.945617 -7.451219
v 13.620905 0.750072 -6.867710
v 13.620905 0.576250 -6.270434
v 13.620905 0.424629 -5.661028
v 13.620905 0.295625 -5.041164
v 13.620905 0.189589 -4.412539
v 13.620905 0.106815 -3.776878
v 13.620905 0.047527 -3.135922
v 13.620905 0.011890 -2.491428
vn -0.0000 1.0000 -0.0000
vn -0.0000 -0.0000 1.0000
vn -0.0000 1.0000 0.0092
vn -0.0000 0.0186 0.9998
vn -0.0000 0.9993 0.0368
vn -0.0000 0.9973 0.0736
vn -0.0000 0.9939 0.1106
vn -0.0000 0.9890 0.1477
vn -0.0000 0.9827 0.1850
vn -0.0000 0.9749 0.2226
vn -0.0000 0.9655 0.2604
vn -0.0000 0.9544 0.2985
vn -0.0000 0.9415 0.3370
vn -0.0000 0.9267 0.3759
vn -0.0000 0.9098 0.4151
vn -0.0000 0.8907 0.4547
vn -0.0000 0.8692 0.4945
vn -0.0000 0.8451 0.5346
vn -0.0000 0.8182 0.5749
vn -0.0000 0.7884 0.6152
vn -0.0000 0.7553 0.6553
vn -0.0000 0.7189 0.6952
vn -0.0000 0.6788 0.7344
vn -0.0000 0.6349 0.7726
vn -0.0000 0.5871 0.8095
vn -0.0000 0.5353 0.8447
vn -0.0000 0.4795 0.8776
vn -0.0000 0.4197 0.9076
vn -0.0000 0.3563 0.9344
vn -0.0000 0.2896 0.9572
vn -0.0000 0.2199 0.9755
vn -0.0000 0.1479 0.9890
vn -0.0000 0.0744 0.9972
vt 0.000000 1.000000
vt 1.000000 1.000000
vt 0.000000 0.856072
vt 1.000000 0.856072
vt 0.000000 0.838754
vt 1.000000 0.838754
vt 0.000000 0.820687
vt 1.000000 0.820687
vt 0.000000 0.801918
vt 1.000000 0.801918
vt 0.000000 0.782500
vt 1.000000 0.782500
vt 0.000000 0.762486
vt 1.000000 0.762486
vt 0.000000 0.741930
vt 1.000000 0.741930
vt 0.000000 0.720890
vt 1.000000 0.720890
vt 0.000000 0.699422
vt 1.000000 0.699422
vt 0.000000 0.677586
vt 1.000000 0.677586
vt 0.000000 0.655442
vt 1.000000 0.655442
vt 0.000000 0.633049
vt 1.000000 0.633049
vt 0.000000 0.610470
vt 1.000000 0.610470
vt 0.000000 0.587766
vt 1.000000 0.587766
vt 0.000000 0.565000
vt 1.000000 0.565000
vt 0.000000 0.000000
vt 1.000000 0.000000
s 1
usemtl BackDrop
f 6/1/4 36/2/4 4/2/2 3/1/2
f 36/2/4 6/1/4 35/1/33 38/2/33
f 38/2/33 35/1/33 34/1/32 39/2/32
f 39/2/32 34/1/32 33/1/31 40/2/31
f 40/2/31 33/1/31 32/1/30 41/2/30
f 41/2/30 32/1/30 31/1/29 42/2/29
f 42/2/29 31/1/29 30/1/28 43/2/28
f 43/2/28 30/1/28 29/1/27 44/2/27
f 44/2/27 29/1/27 28/1/26 45/2/26
f 45/2/26 28/1/26 27/1/25 46/2/25
f 46/2/25 27/1/25 26/1/24 47/2/24
f 47/2/24 26/1/24 25/1/23 48/2/23
f 48/2/23 25/1/23 24/1/22 49/2/22
f 49/2/22 24/1/22 23/1/21 50/2/21
f 50/2/21 23/1/21 22/1/20 51/2/20
f 51/2/20 22/1/20 21/1/19 52/2/19
f 52/2/19 21/1/19 20/3/18 53/4/18
f 53/4/18 20/3/18 19/5/17 54/6/17
f 54/6/17 19/5/17 18/7/16 55/8/16
f 55/8/16 18/7/16 17/9/15 56/10/15
f 56/10/15 17/9/15 16/11/14 57/12/14
f 57/12/14 16/11/14 15/13/13 58/14/13
f 58/14/13 15/13/13 14/15/12 59/16/12
f 59/16/12 14/15/12 13/17/11 60/18/11
f 60/18/11 13/17/11 12/19/10 61/20/10
f 61/20/10 12/19/10 11/21/9 62/22/9
f 62/22/9 11/21/9 10/23/8 63/24/8
f 63/24/8 10/23/8 9/25/7 64/26/7
f 64/26/7 9/25/7 8/27/6 65/28/6
f 65/28/6 8/27/6 7/29/5 66/30/5
f 66/30/5 7/29/5 5/31/3 37/32/3
f 1/33/1 2/34/1 37/32/3 5/31/3
